<svg width="217" height="19" viewBox="0 0 217 19" fill="none" xmlns="http://www.w3.org/2000/svg">
<path d="M21.5678 18.2363L24.6263 0.365342H29.5183L26.4575 18.2363H21.5678ZM44.1321 0.750586C43.1631 0.38853 41.6442 0 39.7477 0C34.9135 0 31.5087 2.42384 31.4795 5.8977C31.4523 8.46559 33.9105 9.8982 35.7661 10.7529C37.6705 11.6291 38.3105 12.1877 38.3013 12.9697C38.2892 14.1677 36.7807 14.7148 35.3744 14.7148C33.4165 14.7148 32.3763 14.4439 30.7696 13.7769L30.139 13.4929L29.4526 17.4934C30.5952 17.9925 32.7081 18.4245 34.9021 18.447C40.0446 18.447 43.383 16.0508 43.421 12.341C43.4392 10.308 42.1359 8.76109 39.3134 7.4855C37.6035 6.65878 36.5563 6.10711 36.5674 5.26999C36.5674 4.52716 37.4538 3.73285 39.3693 3.73285C40.9688 3.70811 42.1279 4.05546 43.0308 4.41752L43.4691 4.62374L44.1321 0.750586ZM56.7212 0.365068H52.941C51.7701 0.365068 50.8936 0.683305 50.3794 1.84707L43.1139 18.2245H48.2511C48.2511 18.2245 49.0908 16.0225 49.2808 15.5389C49.8421 15.5389 54.8327 15.5466 55.5461 15.5466C55.6924 16.1723 56.1413 18.2245 56.1413 18.2245H60.6807L56.7212 0.36452V0.365068ZM50.7235 11.905C51.1282 10.8754 52.6727 6.90928 52.6727 6.90928C52.6439 6.95684 53.0744 5.8746 53.3213 5.20362L53.6519 6.74441C53.6519 6.74441 54.5886 11.0103 54.7844 11.9048H50.7235V11.905ZM17.4148 0.365068L12.6253 12.5523L12.1151 10.0757C11.2234 7.22067 8.44545 4.12749 5.33984 2.57894L9.7193 18.2078L14.8953 18.202L22.5971 0.364885L17.4148 0.364795" fill="#6B6B6D"/>
<path d="M8.11976 0.485474H0.0638551L0 0.856807C6.26741 2.33412 10.4143 5.90423 12.1362 10.1944L10.3845 1.99278C10.0821 0.862641 9.20501 0.525314 8.11995 0.485929" fill="#929292"/>
<path d="M90.2873 9.22343C90.2873 14.3185 86.1599 18.4469 81.0666 18.4469C75.9734 18.4469 71.8459 14.3176 71.8459 9.22343C71.8459 4.12928 75.9744 0 81.0666 0C86.1589 0 90.2873 4.12928 90.2873 9.22343Z" fill="#6B6B6D"/>
<path d="M92.1406 0C90.0726 0 88.1689 0.689005 86.6305 1.8392L86.6378 1.84011C86.9404 2.13247 87.2742 2.33823 87.5316 2.67479L85.6131 2.70524C85.3124 3.00872 85.0385 3.33891 84.7802 3.68205H88.1633C88.4207 3.99099 88.6586 4.25947 88.8745 4.60069H84.1669C83.9944 4.89769 83.8349 5.203 83.6956 5.52024H89.4105C89.5599 5.83657 89.6936 6.07551 89.8071 6.41035H83.3571C83.2547 6.7286 83.1671 7.05414 83.1007 7.38615H90.0773C90.1456 7.70531 90.1981 8.00039 90.2341 8.30115H82.9623C82.9318 8.60463 82.9161 8.91266 82.9161 9.22353H90.2866C90.2866 9.55007 90.2635 9.85255 90.2304 10.1459H82.9623C82.9936 10.4586 83.0398 10.7657 83.1007 11.0683H90.0662C89.9943 11.3671 89.9112 11.6678 89.807 11.9796H83.3359C83.4336 12.295 83.5526 12.6012 83.6826 12.9H89.4105C89.2518 13.2358 89.072 13.5041 88.8737 13.8187H84.1504C84.3367 14.1415 84.5424 14.4495 84.7656 14.7447L88.1634 14.7954C87.8738 15.143 87.5022 15.3525 87.1636 15.6568C87.182 15.6716 86.6222 15.655 85.5199 15.6375C87.1968 17.3679 89.5404 18.447 92.1405 18.447C97.2346 18.447 101.364 14.3176 101.364 9.22353C101.364 4.12948 97.2355 0 92.1406 0Z" fill="#929292"/>
<g clip-path="url(#clip0_91_72)">
<path d="M143.826 8.88738V6.63801C143.826 4.88779 142.409 3.46799 140.658 3.46451V3.46445L137.539 3.45982C135.783 3.45987 134.36 4.88298 134.36 6.63854V17.2065C134.36 17.3954 134.207 17.5485 134.018 17.5485C133.829 17.5485 133.676 17.3954 133.676 17.2065V6.63854C133.676 4.5051 135.405 2.77563 137.539 2.77563H137.539L140.66 2.78039H140.66C142.787 2.78461 144.51 4.51046 144.51 6.63801V8.88738C144.51 11.0208 142.78 12.7503 140.647 12.7503H136.238C136.049 12.7503 135.896 12.5971 135.896 12.4082C135.896 12.2193 136.049 12.0661 136.238 12.0661H140.647C142.402 12.0661 143.826 10.643 143.826 8.88738Z" fill="#6B6B6D"/>
<path d="M147.496 12.4554V4.56119C147.496 3.95207 147.002 3.45835 146.393 3.45835H145.04C144.851 3.45835 144.698 3.30518 144.698 3.11626C144.698 2.92734 144.851 2.77417 145.04 2.77417H146.393C147.38 2.77417 148.18 3.57426 148.18 4.56119V12.4554C148.18 12.6444 148.027 12.7975 147.838 12.7975C147.649 12.7975 147.496 12.6443 147.496 12.4554Z" fill="#6B6B6D"/>
<path d="M147.548 1.89327L146.934 1.2794C146.782 1.12711 146.782 0.880164 146.934 0.727873L147.548 0.114391C147.7 -0.0381304 147.947 -0.0381304 148.1 0.114391L148.713 0.727873C148.866 0.880164 148.866 1.12711 148.713 1.2794L148.099 1.89327C147.947 2.04556 147.7 2.04556 147.548 1.89327Z" fill="#6B6B6D"/>
<path d="M151.777 2.76721C152.559 2.76721 153.308 3.0776 153.86 3.62993L157 6.76957L157.026 6.7944C157.3 7.04243 157.724 7.03419 157.989 6.76957L161.117 3.64145C161.67 3.08913 162.419 2.77873 163.2 2.77873H164.291C164.48 2.77874 164.634 2.93191 164.634 3.12083C164.634 3.30973 164.48 3.46286 164.291 3.46286H163.2C162.6 3.46286 162.025 3.70118 161.601 4.12525L158.473 7.25337C157.932 7.79365 157.056 7.79366 156.516 7.25331L153.376 4.11372C152.952 3.68968 152.377 3.4514 151.777 3.4514H150.435C150.246 3.4514 150.093 3.29823 150.093 3.1093C150.093 2.92038 150.246 2.76721 150.435 2.76721H151.777Z" fill="#6B6B6D"/>
<path d="M156.516 8.24226C157.056 7.70194 157.932 7.70198 158.473 8.24226L161.601 11.3704C162.025 11.7945 162.6 12.0328 163.2 12.0328H164.291C164.48 12.0328 164.634 12.1859 164.634 12.3748C164.634 12.5637 164.48 12.7169 164.291 12.7169H163.2C162.443 12.7169 161.716 12.4256 161.17 11.9053L161.117 11.8542L157.989 8.72606C157.716 8.4529 157.273 8.45296 157 8.72606L153.86 11.8657C153.308 12.418 152.559 12.7284 151.777 12.7284H150.435C150.246 12.7284 150.093 12.5752 150.093 12.3863C150.093 12.1974 150.246 12.0442 150.435 12.0442H151.777C152.377 12.0442 152.952 11.8059 153.376 11.3819L156.516 8.24226Z" fill="#6B6B6D"/>
<path d="M126.015 14.3921C125.341 14.3921 124.708 14.1298 124.231 13.6537L121.656 11.0782C121.475 10.8969 121.16 10.8974 120.979 11.0782L118.394 13.6631C117.918 14.1392 117.284 14.4015 116.61 14.4015H116.103L119.365 17.6634C120.383 18.682 122.035 18.682 123.054 17.6634L126.325 14.3921H126.015Z" fill="#6B6B6D"/>
<path d="M116.61 5.28226C117.284 5.28226 117.918 5.54456 118.394 6.02072L120.979 8.60603C121.165 8.79227 121.469 8.79296 121.656 8.60581L124.231 6.03014C124.708 5.55399 125.341 5.29168 126.015 5.29168H126.325L123.054 2.02053C122.035 1.00178 120.383 1.00178 119.365 2.02053L116.103 5.28227L116.61 5.28226Z" fill="#6B6B6D"/>
<path d="M129.031 7.99745L127.054 6.02069C127.011 6.03812 126.964 6.049 126.914 6.049H126.015C125.55 6.049 125.095 6.23747 124.767 6.56605L122.192 9.14148C121.951 9.38249 121.634 9.50308 121.317 9.50308C121.001 9.50308 120.684 9.38249 120.443 9.14171L117.858 6.55663C117.53 6.22798 117.075 6.03959 116.61 6.03959H115.505C115.458 6.03959 115.414 6.02848 115.372 6.01282L113.388 7.99745C112.369 9.01619 112.369 10.6678 113.388 11.6865L115.372 13.6711C115.414 13.6554 115.458 13.6443 115.505 13.6443H116.61C117.075 13.6443 117.53 13.4559 117.858 13.1273L120.443 10.5425C120.91 10.0757 121.725 10.0755 122.192 10.5427L124.767 13.1179C125.095 13.4465 125.55 13.635 126.015 13.635H126.914C126.964 13.635 127.011 13.6458 127.054 13.6633L129.031 11.6865C130.05 10.6678 130.05 9.01619 129.031 7.99745Z" fill="#6B6B6D"/>
<path d="M136.701 16.3081C136.555 16.3081 136.385 16.3432 136.217 16.3819V17.0259C136.334 17.0684 136.467 17.0888 136.594 17.0888C136.917 17.0888 137.07 16.9799 137.07 16.6955C137.07 16.4281 136.945 16.3081 136.701 16.3081ZM136.109 17.504V16.2305H136.197L136.206 16.2859C136.356 16.2508 136.563 16.2047 136.71 16.2047C136.83 16.2047 136.945 16.223 137.041 16.3006C137.151 16.3912 137.186 16.5368 137.186 16.6955C137.186 16.8619 137.131 17.0186 136.98 17.1053C136.875 17.1644 136.732 17.1883 136.605 17.1883C136.474 17.1883 136.349 17.168 136.217 17.1293V17.504H136.109Z" fill="#6B6B6D"/>
<path d="M137.997 16.3043C137.674 16.3043 137.53 16.4059 137.53 16.6901C137.53 16.9651 137.673 17.0888 137.997 17.0888C138.319 17.0888 138.462 16.9891 138.462 16.7049C138.462 16.4299 138.32 16.3043 137.997 16.3043ZM138.413 17.0888C138.306 17.1662 138.162 17.1884 137.997 17.1884C137.829 17.1884 137.685 17.1644 137.58 17.0888C137.462 17.0058 137.414 16.8691 137.414 16.6976C137.414 16.5277 137.462 16.3894 137.58 16.3043C137.685 16.2288 137.829 16.2047 137.997 16.2047C138.163 16.2047 138.306 16.2288 138.413 16.3043C138.533 16.3894 138.579 16.5277 138.579 16.6955C138.579 16.8673 138.531 17.0058 138.413 17.0888Z" fill="#6B6B6D"/>
<path d="M139.941 17.1626L139.582 16.3894H139.574L139.22 17.1626H139.122L138.738 16.2305H138.858L139.177 17.013H139.185L139.532 16.2305H139.631L139.988 17.013H139.995L140.307 16.2305H140.423L140.039 17.1626H139.941Z" fill="#6B6B6D"/>
<path d="M141.119 16.3025C140.82 16.3025 140.719 16.4353 140.7 16.6274H141.538C141.529 16.4152 141.42 16.3025 141.119 16.3025ZM141.116 17.1884C140.937 17.1884 140.82 17.1626 140.728 17.085C140.619 16.9909 140.582 16.8544 140.582 16.6975C140.582 16.548 140.632 16.3893 140.756 16.2988C140.859 16.2269 140.987 16.2047 141.119 16.2047C141.239 16.2047 141.378 16.2176 141.492 16.2952C141.627 16.3855 141.653 16.5444 141.653 16.7252H140.697C140.7 16.917 140.763 17.087 141.125 17.087C141.297 17.087 141.457 17.0592 141.607 17.0334V17.1311C141.452 17.159 141.28 17.1884 141.116 17.1884Z" fill="#6B6B6D"/>
<path d="M141.965 17.1626V16.2305H142.054L142.063 16.286C142.261 16.2362 142.353 16.2047 142.526 16.2047H142.539V16.3081H142.513C142.368 16.3081 142.279 16.3283 142.074 16.3819V17.1626H141.965Z" fill="#6B6B6D"/>
<path d="M143.172 16.3025C142.873 16.3025 142.771 16.4353 142.753 16.6274H143.591C143.582 16.4152 143.473 16.3025 143.172 16.3025ZM143.168 17.1884C142.989 17.1884 142.873 17.1626 142.781 17.085C142.672 16.9909 142.635 16.8544 142.635 16.6975C142.635 16.548 142.685 16.3893 142.808 16.2988C142.912 16.2269 143.039 16.2047 143.172 16.2047C143.292 16.2047 143.43 16.2176 143.545 16.2952C143.679 16.3855 143.705 16.5444 143.705 16.7252H142.749C142.753 16.917 142.816 17.087 143.177 17.087C143.349 17.087 143.51 17.0592 143.659 17.0334V17.1311C143.504 17.159 143.332 17.1884 143.168 17.1884Z" fill="#6B6B6D"/>
<path d="M144.898 16.3672C144.782 16.3247 144.649 16.3043 144.522 16.3043C144.199 16.3043 144.045 16.4134 144.045 16.6976C144.045 16.9669 144.171 17.085 144.415 17.085C144.56 17.085 144.73 17.0499 144.898 17.013V16.3672ZM144.919 17.1626L144.909 17.1072C144.76 17.1423 144.553 17.1885 144.405 17.1885C144.286 17.1885 144.171 17.1719 144.075 17.0925C143.964 17.002 143.929 16.8562 143.929 16.6976C143.929 16.5315 143.985 16.3745 144.136 16.2896C144.241 16.2287 144.383 16.2047 144.512 16.2047C144.642 16.2047 144.767 16.227 144.898 16.2638V15.8375H145.007V17.1626H144.919Z" fill="#6B6B6D"/>
<path d="M146.604 16.3081C146.458 16.3081 146.288 16.3432 146.12 16.3819V17.0241C146.238 17.0684 146.369 17.0888 146.497 17.0888C146.82 17.0888 146.973 16.9799 146.973 16.6954C146.973 16.428 146.848 16.3081 146.604 16.3081ZM146.883 17.1053C146.777 17.1643 146.635 17.1883 146.508 17.1883C146.369 17.1883 146.231 17.1644 146.091 17.1182L146.085 17.1626H146.011V15.8374H146.12V16.2821C146.27 16.2491 146.471 16.2047 146.613 16.2047C146.733 16.2047 146.848 16.223 146.943 16.3006C147.054 16.3912 147.089 16.5368 147.089 16.6954C147.089 16.8619 147.034 17.0186 146.883 17.1053Z" fill="#6B6B6D"/>
<path d="M147.234 17.5205V17.4192C147.287 17.4246 147.337 17.4284 147.372 17.4284C147.507 17.4284 147.588 17.3895 147.664 17.2363L147.699 17.1626L147.212 16.2305H147.337L147.754 17.0351H147.762L148.159 16.2305H148.282L147.758 17.2771C147.662 17.4672 147.559 17.5298 147.369 17.5298C147.326 17.5298 147.28 17.5262 147.234 17.5205Z" fill="#6B6B6D"/>
<path d="M149.783 16.631H149.421V16.9578H149.785C150.034 16.9578 150.128 16.9299 150.128 16.7935C150.128 16.6475 149.999 16.631 149.783 16.631ZM149.717 16.1013H149.421V16.4334H149.718C149.964 16.4334 150.062 16.404 150.062 16.2655C150.062 16.118 149.938 16.1013 149.717 16.1013ZM150.278 17.0741C150.145 17.1589 149.984 17.1625 149.691 17.1625H149.139V15.8983H149.678C149.931 15.8983 150.086 15.9019 150.215 15.9796C150.307 16.0349 150.344 16.1198 150.344 16.2305C150.344 16.3633 150.289 16.452 150.145 16.5111V16.5184C150.307 16.5555 150.412 16.6385 150.412 16.8175C150.412 16.9392 150.368 17.0186 150.278 17.0741Z" fill="#6B6B6D"/>
<path d="M151.517 16.7714C151.408 16.762 151.297 16.7566 151.181 16.7566C150.991 16.7566 150.924 16.7954 150.924 16.882C150.924 16.9632 150.98 17.0076 151.125 17.0076C151.247 17.0076 151.393 16.98 151.517 16.9521V16.7714ZM151.572 17.1626L151.565 17.1072C151.406 17.1461 151.221 17.1884 151.059 17.1884C150.959 17.1884 150.852 17.1755 150.776 17.1201C150.706 17.0703 150.673 16.9891 150.673 16.895C150.673 16.7897 150.719 16.6919 150.83 16.6422C150.928 16.596 151.059 16.5924 151.179 16.5924C151.277 16.5924 151.408 16.5978 151.517 16.6053V16.5885C151.517 16.4428 151.421 16.3948 151.159 16.3948C151.057 16.3948 150.933 16.4002 150.815 16.4113V16.2231C150.946 16.2122 151.094 16.2047 151.216 16.2047C151.378 16.2047 151.546 16.2177 151.65 16.2914C151.756 16.3672 151.777 16.4724 151.777 16.6107V17.1626L151.572 17.1626Z" fill="#6B6B6D"/>
<path d="M152.994 17.1626V16.6475C152.994 16.4779 152.907 16.4169 152.752 16.4169C152.638 16.4169 152.494 16.4464 152.372 16.476V17.1626H152.112V16.2305H152.324L152.333 16.2896C152.497 16.2472 152.68 16.2047 152.831 16.2047C152.946 16.2047 153.062 16.2212 153.151 16.3007C153.224 16.3672 153.252 16.4593 153.252 16.5923V17.1626H152.994Z" fill="#6B6B6D"/>
<path d="M153.987 17.1884C153.868 17.1884 153.736 17.1718 153.64 17.0906C153.526 16.9983 153.493 16.8525 153.493 16.6955C153.493 16.5479 153.541 16.3873 153.683 16.297C153.799 16.2212 153.943 16.2047 154.093 16.2047C154.2 16.2047 154.305 16.2121 154.421 16.223V16.4223C154.327 16.4133 154.214 16.4058 154.124 16.4058C153.877 16.4058 153.76 16.4834 153.76 16.6975C153.76 16.8987 153.847 16.9854 154.05 16.9854C154.168 16.9854 154.307 16.9632 154.442 16.9374V17.1293C154.296 17.159 154.137 17.1884 153.987 17.1884Z" fill="#6B6B6D"/>
<path d="M155.21 16.4002C154.963 16.4002 154.854 16.4778 154.854 16.6901C154.854 16.9024 154.961 16.9929 155.21 16.9929C155.456 16.9929 155.563 16.917 155.563 16.7048C155.563 16.4926 155.457 16.4002 155.21 16.4002ZM155.657 17.0906C155.542 17.168 155.393 17.1884 155.21 17.1884C155.024 17.1884 154.874 17.1662 154.762 17.0906C154.632 17.0057 154.586 16.8655 154.586 16.6975C154.586 16.5294 154.632 16.3873 154.762 16.3025C154.874 16.2269 155.024 16.2047 155.21 16.2047C155.395 16.2047 155.542 16.2269 155.657 16.3025C155.786 16.3873 155.83 16.5294 155.83 16.6955C155.83 16.8636 155.784 17.0057 155.657 17.0906Z" fill="#6B6B6D"/>
<path d="M157.333 17.1884C157.176 17.1884 157.006 17.1626 156.879 17.0574C156.727 16.9318 156.681 16.7381 156.681 16.5294C156.681 16.3432 156.74 16.1217 156.938 15.9925C157.091 15.8929 157.281 15.8726 157.473 15.8726C157.613 15.8726 157.757 15.8818 157.914 15.8947V16.1217C157.779 16.1106 157.613 16.1013 157.484 16.1013C157.124 16.1013 156.971 16.238 156.971 16.5294C156.971 16.8268 157.113 16.9597 157.379 16.9597C157.552 16.9597 157.746 16.9246 157.942 16.8838V17.1089C157.746 17.1479 157.541 17.1884 157.333 17.1884Z" fill="#6B6B6D"/>
<path d="M158.707 16.3708C158.491 16.3708 158.408 16.4484 158.391 16.5905H159.019C159.011 16.4392 158.922 16.3708 158.707 16.3708ZM158.668 17.1884C158.515 17.1884 158.376 17.1701 158.273 17.085C158.162 16.9929 158.123 16.8544 158.123 16.6955C158.123 16.5534 158.169 16.3948 158.299 16.3025C158.413 16.2213 158.559 16.2047 158.707 16.2047C158.839 16.2047 158.996 16.2195 159.111 16.2988C159.26 16.4041 159.273 16.5665 159.275 16.7584H158.389C158.395 16.9006 158.47 16.9929 158.732 16.9929C158.895 16.9929 159.076 16.9689 159.229 16.9449V17.1276C159.05 17.1572 158.854 17.1884 158.668 17.1884Z" fill="#6B6B6D"/>
<path d="M160.433 17.1626V16.6475C160.433 16.4779 160.346 16.4169 160.191 16.4169C160.077 16.4169 159.933 16.4464 159.811 16.476V17.1626H159.551V16.2305H159.763L159.772 16.2896C159.936 16.2472 160.119 16.2047 160.271 16.2047C160.385 16.2047 160.501 16.2212 160.59 16.3007C160.664 16.3672 160.691 16.4593 160.691 16.5923V17.1626H160.433Z" fill="#6B6B6D"/>
<path d="M161.432 17.1884C161.307 17.1884 161.192 17.1533 161.129 17.0556C161.083 16.9891 161.061 16.8988 161.061 16.7732V16.4243H160.873V16.2306H161.061L161.089 15.9481H161.32V16.2306H161.687V16.4243H161.32V16.7234C161.32 16.7954 161.325 16.8562 161.345 16.9006C161.373 16.9633 161.434 16.9872 161.515 16.9872C161.576 16.9872 161.65 16.978 161.701 16.9689V17.1552C161.617 17.1719 161.519 17.1884 161.432 17.1884Z" fill="#6B6B6D"/>
<path d="M161.941 17.1626V16.2305H162.153L162.162 16.2896C162.334 16.2416 162.461 16.2047 162.624 16.2047C162.631 16.2047 162.642 16.2047 162.657 16.2065V16.428C162.627 16.4263 162.592 16.4263 162.566 16.4263C162.439 16.4263 162.343 16.4409 162.201 16.4743V17.1626L161.941 17.1626Z" fill="#6B6B6D"/>
<path d="M163.603 16.7714C163.494 16.762 163.383 16.7566 163.267 16.7566C163.077 16.7566 163.01 16.7954 163.01 16.882C163.01 16.9632 163.066 17.0076 163.212 17.0076C163.333 17.0076 163.479 16.98 163.603 16.9521V16.7714ZM163.658 17.1626L163.651 17.1072C163.492 17.1461 163.308 17.1884 163.145 17.1884C163.045 17.1884 162.938 17.1755 162.863 17.1201C162.793 17.0703 162.759 16.9891 162.759 16.895C162.759 16.7897 162.806 16.6919 162.916 16.6422C163.014 16.596 163.145 16.5924 163.265 16.5924C163.363 16.5924 163.494 16.5978 163.603 16.6053V16.5885C163.603 16.4428 163.507 16.3948 163.245 16.3948C163.143 16.3948 163.02 16.4002 162.902 16.4113V16.2231C163.033 16.2122 163.18 16.2047 163.302 16.2047C163.464 16.2047 163.633 16.2177 163.736 16.2914C163.843 16.3672 163.863 16.4724 163.863 16.6107V17.1626L163.658 17.1626Z" fill="#6B6B6D"/>
<path d="M164.198 15.8375H164.458V17.1626H164.198V15.8375Z" fill="#6B6B6D"/>
</g>
<path d="M180.535 8.13086H181.154V0H181.764V8.13086H182.295V0H183.385V8.13086H184.437V0H185.046V8.13086H185.311V0H185.78V8.13086H186.197V0H187.288V8.13086H187.541V0H188.149V8.13086H189.035V0H191.001V8.13086H191.62V0H192.229V8.13086H192.761V0H193.851V8.13086H194.902V0H195.512V8.13086H195.776V0H196.246V8.13086H197.018V0H198.108V8.13086H199.159V0H199.769V8.13086H200.033V0H200.503V8.13086H200.921V0H202.011V8.13086H202.264V0H202.873V8.13086H203.683V0H204.292V8.13086H204.557V0H205.026V8.13086H205.443V0H206.534V8.13086H206.787V0H207.396V8.13086H207.928V0H209.893V8.13086H210.513V0H211.121V8.13086H211.652V0H212.743V8.13086H213.794V0H214.403V8.13086H214.668V0H215.138V8.13086H215.632V18.4473H177.955V8.13086H178.569V0H180.535V8.13086ZM176.822 18.4053H175.731V0H176.822V18.4053ZM177.684 18.4053H177.075V0H177.684V18.4053ZM217 18.4053H215.91V0H217V18.4053ZM190.01 11.1426C189.174 11.1427 188.463 11.3921 187.883 11.8916C187.186 12.4933 186.838 13.4191 186.838 14.668C186.838 15.8062 187.13 16.68 187.714 17.2861C188.298 17.892 189.063 18.1943 190.01 18.1943C190.599 18.1943 191.144 18.0572 191.642 17.7812C192.141 17.5053 192.522 17.1185 192.782 16.6211C193.043 16.1235 193.173 15.4411 193.173 14.5723C193.173 13.5016 192.878 12.6607 192.289 12.0547C191.698 11.4466 190.937 11.1426 190.01 11.1426ZM200.186 11.1426C199.254 11.1426 198.495 11.4553 197.911 12.083C197.327 12.7087 197.035 13.5908 197.035 14.7246C197.035 15.8215 197.325 16.6752 197.902 17.2812C198.48 17.8895 199.263 18.1943 200.249 18.1943C201.033 18.1943 201.676 18.0029 202.18 17.623C202.684 17.2429 203.029 16.706 203.214 16.0176L202.028 15.8613C201.855 16.3475 201.62 16.7013 201.322 16.9229C201.027 17.1445 200.668 17.2558 200.249 17.2559C199.686 17.2558 199.215 17.0581 198.839 16.665C198.461 16.2719 198.253 15.7023 198.209 14.9619H203.247C203.251 14.8274 203.253 14.7245 203.253 14.6572C203.253 13.5431 202.967 12.6782 202.396 12.0635C201.824 11.4487 201.087 11.1426 200.186 11.1426ZM211.026 11.1426C210.19 11.1427 209.479 11.3921 208.899 11.8916C208.202 12.4933 207.855 13.4191 207.854 14.668C207.854 15.8062 208.146 16.68 208.73 17.2861C209.315 17.892 210.079 18.1943 211.026 18.1943C211.615 18.1943 212.161 18.0572 212.658 17.7812C213.158 17.5053 213.538 17.1185 213.799 16.6211C214.059 16.1235 214.189 15.4411 214.189 14.5723C214.189 13.5016 213.894 12.6607 213.306 12.0547C212.715 11.4466 211.954 11.1426 211.026 11.1426ZM204.859 9.6123V11.2852H204.012V12.1719H204.859V16.0693C204.859 16.7575 204.905 17.2095 204.998 17.4248C205.091 17.6398 205.253 17.8118 205.48 17.9443C205.711 18.0768 206.033 18.1416 206.447 18.1416C206.699 18.1416 206.988 18.1074 207.31 18.04L207.153 17.0273C206.947 17.0578 206.779 17.0733 206.653 17.0732C206.484 17.0732 206.354 17.0444 206.263 16.9902C206.172 16.9338 206.105 16.86 206.066 16.7666C206.025 16.673 206.006 16.4621 206.006 16.1348V12.1719H207.153V11.2852H206.006V8.92383L204.859 9.6123ZM178.665 8.71777V18.0508H182.226C182.821 18.0508 183.323 17.9989 183.733 17.8945C184.142 17.7903 184.483 17.6356 184.755 17.4336C185.026 17.2294 185.254 16.9401 185.438 16.5645C185.623 16.1887 185.717 15.7825 185.717 15.3438C185.717 14.8008 185.565 14.3291 185.261 13.9316C184.959 13.5321 184.524 13.249 183.959 13.084C184.396 12.8667 184.722 12.5824 184.937 12.2305C185.151 11.8787 185.261 11.5029 185.261 11.1055C185.261 10.6753 185.139 10.2641 184.894 9.87305C184.65 9.48016 184.313 9.18893 183.883 9C183.451 8.81119 182.879 8.71777 182.167 8.71777H178.665ZM194.492 8.71777V18.0508H195.639V8.71777H194.492ZM190.01 12.0938C190.574 12.0938 191.049 12.3092 191.429 12.7393C191.809 13.1672 192 13.7999 192 14.6338C192 15.5177 191.811 16.1762 191.433 16.6084C191.052 17.0406 190.579 17.2559 190.01 17.2559C189.434 17.2558 188.958 17.0404 188.578 16.6104C188.2 16.1823 188.011 15.5343 188.011 14.6699C188.011 13.8078 188.2 13.1622 188.578 12.7344C188.958 12.3066 189.434 12.0938 190.01 12.0938ZM211.026 12.0938C211.591 12.0938 212.065 12.3092 212.445 12.7393C212.825 13.1672 213.017 13.7998 213.017 14.6338C213.017 15.5177 212.827 16.1762 212.449 16.6084C212.069 17.0406 211.595 17.2559 211.026 17.2559C210.451 17.2557 209.975 17.0403 209.595 16.6104C209.217 16.1823 209.028 15.5342 209.028 14.6699C209.028 13.8078 209.217 13.1622 209.595 12.7344C209.975 12.3066 210.451 12.0939 211.026 12.0938ZM182.062 13.7363C182.655 13.7363 183.112 13.7884 183.427 13.8926C183.744 13.9968 183.992 14.1773 184.17 14.4355C184.35 14.6939 184.439 14.9962 184.439 15.3457C184.439 15.6432 184.379 15.9067 184.255 16.1348C184.131 16.3629 183.974 16.5368 183.783 16.6562C183.592 16.7756 183.353 16.8602 183.071 16.9102C182.908 16.9406 182.627 16.9561 182.228 16.9561H179.903V13.7363H182.062ZM200.192 12.0811C200.772 12.0811 201.246 12.3026 201.608 12.7432C201.845 13.0277 201.991 13.4537 202.041 14.0225H198.274C198.314 13.432 198.511 12.9601 198.867 12.6084C199.226 12.2566 199.667 12.0811 200.192 12.0811ZM181.77 9.8125C182.439 9.8125 182.912 9.85656 183.188 9.94336C183.464 10.0302 183.678 10.1932 183.825 10.4297C183.975 10.6641 184.049 10.9387 184.049 11.249C184.049 11.5767 183.968 11.8483 183.81 12.0654C183.651 12.2827 183.414 12.4388 183.099 12.5322C182.862 12.6039 182.469 12.6416 181.922 12.6416H179.903V9.8125H181.77Z" fill="#6B6B6D"/>
<defs>
<clipPath id="clip0_91_72">
<rect width="51.998" height="18.4274" fill="white" transform="translate(112.624)"/>
</clipPath>
</defs>
</svg>
